<svg id="svg" version="1.1" xmlns="http://www.w3.org/2000/svg" xmlns:xlink="http://www.w3.org/1999/xlink" width="400" height="400" viewBox="0, 0, 400,400"><g id="svgg"><path id="path0" d="M194.960 66.336 C 195.058 66.494,194.530 66.814,193.786 67.047 C 193.042 67.280,192.526 67.320,192.640 67.135 C 193.011 66.536,191.950 66.782,190.862 67.548 C 190.278 67.959,189.392 68.422,188.894 68.576 C 188.396 68.731,188.076 68.999,188.182 69.171 C 188.289 69.343,187.952 69.403,187.435 69.305 C 186.917 69.206,186.355 69.349,186.185 69.624 C 185.986 69.947,186.040 70.023,186.338 69.838 C 186.592 69.681,186.800 69.760,186.800 70.014 C 186.800 70.267,186.433 70.571,185.984 70.688 C 185.535 70.806,185.238 71.104,185.323 71.351 C 185.409 71.598,185.147 72.426,184.742 73.191 C 184.336 73.956,184.104 74.946,184.227 75.391 C 184.634 76.864,185.328 78.000,185.823 78.000 C 186.092 78.000,186.286 78.315,186.256 78.700 C 186.223 79.111,186.433 79.350,186.765 79.278 C 187.518 79.116,189.640 80.012,189.404 80.393 C 188.915 81.185,190.793 82.139,191.790 81.605 C 192.611 81.166,192.887 81.172,193.463 81.640 C 194.063 82.126,194.107 82.121,193.800 81.600 C 193.507 81.102,193.551 81.084,194.060 81.497 C 194.397 81.770,194.792 81.875,194.937 81.730 C 195.082 81.585,195.200 81.696,195.200 81.976 C 195.200 82.260,195.460 82.386,195.787 82.260 C 196.110 82.136,196.483 82.211,196.617 82.427 C 196.885 82.861,198.309 82.762,199.123 82.252 C 199.410 82.072,200.085 82.035,200.623 82.170 C 201.160 82.305,201.600 82.277,201.600 82.108 C 201.600 81.938,202.455 81.812,203.500 81.826 C 204.545 81.840,205.521 81.672,205.670 81.452 C 205.845 81.192,206.138 81.217,206.506 81.522 C 207.218 82.113,207.744 81.655,207.161 80.953 C 206.824 80.547,206.923 80.470,207.611 80.602 C 208.736 80.819,210.643 79.841,211.228 78.748 C 211.592 78.067,211.575 77.961,211.140 78.199 C 210.843 78.361,211.068 78.068,211.640 77.547 C 213.576 75.783,213.359 72.197,211.226 70.703 C 210.831 70.426,210.481 70.020,210.449 69.800 C 210.417 69.580,210.116 69.398,209.779 69.397 C 209.442 69.395,209.039 69.215,208.883 68.997 C 208.555 68.537,207.944 68.344,206.000 68.086 C 205.230 67.983,204.454 67.648,204.275 67.341 C 204.097 67.034,203.774 66.892,203.558 67.026 C 203.342 67.160,202.874 67.028,202.517 66.734 C 201.989 66.298,201.838 66.296,201.695 66.721 C 201.565 67.105,201.372 67.053,200.960 66.521 C 200.420 65.826,200.380 65.826,199.840 66.521 C 199.421 67.062,199.228 67.112,199.071 66.721 C 198.910 66.323,198.781 66.313,198.520 66.679 C 198.303 66.983,197.969 67.028,197.603 66.802 C 197.249 66.583,196.825 66.613,196.504 66.879 C 196.110 67.207,196.035 67.174,196.201 66.742 C 196.343 66.372,196.133 66.150,195.601 66.110 C 195.151 66.076,194.863 66.178,194.960 66.336 M242.075 77.051 C 241.806 77.532,241.530 77.601,241.017 77.314 C 240.046 76.770,238.452 77.155,237.974 78.049 C 237.753 78.462,237.308 78.800,236.986 78.800 C 236.664 78.800,236.400 78.980,236.400 79.200 C 236.400 79.420,236.577 79.600,236.794 79.600 C 237.020 79.600,237.116 80.369,237.020 81.395 C 236.891 82.777,237.007 83.280,237.526 83.583 C 238.019 83.870,238.049 83.979,237.638 83.988 C 237.190 83.998,237.211 84.149,237.738 84.731 C 238.102 85.134,238.400 85.653,238.400 85.885 C 238.400 86.117,238.762 86.401,239.204 86.517 C 239.646 86.633,240.231 87.258,240.504 87.907 C 240.988 89.059,241.154 89.200,242.024 89.200 C 242.257 89.200,242.361 89.340,242.255 89.511 C 241.772 90.293,243.545 91.812,244.357 91.312 C 245.066 90.876,245.162 90.939,245.275 91.912 C 245.374 92.771,245.611 93.001,246.400 93.005 C 246.950 93.008,247.645 93.167,247.945 93.357 C 248.280 93.570,248.601 93.522,248.780 93.232 C 248.995 92.884,249.193 92.909,249.541 93.329 C 250.514 94.501,256.800 93.561,256.800 92.243 C 256.800 91.926,257.007 91.598,257.259 91.514 C 257.994 91.269,258.106 88.586,257.406 88.005 C 257.073 87.728,256.800 87.264,256.800 86.974 C 256.800 86.683,256.473 86.210,256.074 85.923 C 255.648 85.616,255.348 84.903,255.350 84.200 C 255.352 83.176,255.218 83.019,254.432 83.133 C 253.825 83.220,253.608 83.111,253.793 82.811 C 254.146 82.241,252.064 80.400,251.369 80.667 C 251.088 80.775,250.564 80.354,250.204 79.732 C 249.825 79.076,249.644 78.937,249.774 79.400 C 249.947 80.013,249.777 79.933,249.050 79.057 C 248.477 78.367,247.996 78.082,247.838 78.339 C 247.453 78.961,246.411 78.437,246.673 77.754 C 246.861 77.265,246.729 77.250,245.835 77.657 C 244.898 78.084,244.702 78.039,244.164 77.270 C 243.441 76.238,242.581 76.148,242.075 77.051 M156.063 77.724 C 155.824 78.012,155.070 78.209,154.387 78.162 C 153.625 78.109,153.062 78.293,152.930 78.638 C 152.811 78.947,152.458 79.200,152.145 79.200 C 151.831 79.200,151.471 79.470,151.345 79.800 C 151.218 80.130,150.874 80.400,150.580 80.400 C 150.286 80.400,149.780 80.780,149.455 81.243 C 149.130 81.707,148.686 81.977,148.468 81.842 C 148.251 81.708,147.634 82.120,147.097 82.758 C 146.560 83.396,145.778 83.986,145.360 84.069 C 144.830 84.174,144.612 84.538,144.640 85.274 C 144.670 86.046,144.523 86.269,144.094 86.104 C 143.608 85.918,143.587 86.027,143.968 86.739 C 144.221 87.213,144.332 87.623,144.214 87.650 C 144.096 87.678,143.820 87.745,143.600 87.800 C 143.380 87.855,143.088 87.923,142.951 87.950 C 142.814 87.978,142.926 88.270,143.200 88.600 C 143.597 89.079,143.597 89.321,143.200 89.800 C 142.803 90.279,142.803 90.521,143.200 91.000 C 143.598 91.480,143.596 91.600,143.187 91.600 C 142.841 91.600,142.907 91.856,143.391 92.391 C 143.785 92.825,144.291 93.068,144.515 92.929 C 144.740 92.790,144.834 92.839,144.725 93.038 C 144.160 94.069,147.171 95.254,148.196 94.403 C 148.497 94.153,149.435 93.905,150.280 93.852 C 152.221 93.731,157.086 91.388,157.391 90.429 C 157.529 89.994,157.975 89.725,158.510 89.753 C 159.015 89.780,159.400 89.566,159.400 89.258 C 159.400 88.960,160.064 87.997,160.875 87.118 C 163.999 83.735,164.319 79.368,161.496 78.660 C 160.893 78.509,160.400 78.144,160.400 77.850 C 160.400 77.513,159.957 77.331,159.201 77.357 C 158.541 77.381,158.001 77.571,158.001 77.780 C 158.000 77.989,157.784 77.944,157.520 77.680 C 156.906 77.066,156.602 77.075,156.063 77.724 M219.555 82.884 C 219.297 83.367,218.893 83.556,218.433 83.411 C 217.660 83.165,213.298 86.971,213.515 87.702 C 213.578 87.915,213.309 88.325,212.916 88.612 C 212.523 88.900,212.322 89.256,212.470 89.403 C 212.618 89.551,212.482 90.401,212.168 91.291 C 211.648 92.765,211.660 92.958,212.298 93.455 C 212.917 93.936,212.929 94.059,212.400 94.500 C 211.554 95.205,211.425 96.400,212.195 96.400 C 212.542 96.400,212.936 96.715,213.072 97.100 C 213.208 97.485,213.697 98.234,214.160 98.765 C 214.622 99.295,214.762 99.591,214.470 99.423 C 213.626 98.934,214.765 100.761,216.241 102.262 C 216.924 102.956,217.846 103.986,218.290 104.551 C 220.725 107.647,221.639 108.466,222.167 108.027 C 222.778 107.521,223.998 107.863,224.003 108.543 C 224.009 109.274,227.238 110.866,227.789 110.409 C 228.099 110.151,228.419 110.179,228.730 110.490 C 229.072 110.832,229.200 110.836,229.200 110.505 C 229.200 110.255,229.551 110.076,229.980 110.108 C 230.539 110.151,230.646 110.303,230.360 110.648 C 230.090 110.974,230.116 111.224,230.441 111.425 C 230.717 111.596,231.148 111.412,231.454 110.993 C 231.938 110.332,232.053 110.322,232.694 110.884 C 233.394 111.498,234.930 111.604,235.459 111.075 C 235.610 110.924,236.144 110.800,236.647 110.800 C 237.149 110.800,237.704 110.553,237.880 110.251 C 238.065 109.933,238.789 109.722,239.598 109.751 C 240.787 109.793,241.002 109.664,241.044 108.887 C 241.095 107.914,241.437 107.400,242.033 107.400 C 242.235 107.400,242.394 107.259,242.386 107.086 C 242.378 106.913,242.661 106.482,243.015 106.128 C 243.427 105.716,243.509 105.391,243.243 105.227 C 242.967 105.056,243.023 104.592,243.411 103.843 C 243.733 103.224,243.896 102.555,243.774 102.358 C 243.652 102.161,243.743 102.000,243.976 102.000 C 244.209 102.000,244.400 101.640,244.400 101.200 C 244.400 100.760,244.244 100.400,244.053 100.400 C 243.862 100.400,243.606 99.662,243.485 98.760 C 243.364 97.852,242.899 96.779,242.444 96.355 C 241.812 95.766,241.680 95.299,241.873 94.333 C 242.053 93.434,241.993 93.157,241.662 93.361 C 241.394 93.527,241.200 93.405,241.200 93.070 C 241.200 92.753,240.798 92.388,240.307 92.260 C 239.630 92.083,239.526 91.914,239.877 91.563 C 240.338 91.102,238.607 89.200,237.729 89.200 C 237.533 89.200,237.052 88.657,236.659 87.993 C 236.267 87.329,235.800 86.877,235.620 86.987 C 235.441 87.098,234.868 86.858,234.347 86.454 C 233.826 86.049,232.680 85.386,231.800 84.980 C 230.920 84.574,230.106 84.109,229.992 83.946 C 229.877 83.783,229.302 83.703,228.713 83.768 C 228.045 83.841,227.555 83.659,227.411 83.285 C 227.285 82.955,227.067 82.800,226.927 82.939 C 226.788 83.079,226.404 82.970,226.076 82.697 C 225.041 81.838,220.038 81.981,219.555 82.884 M175.823 82.762 C 175.700 82.962,175.242 83.031,174.804 82.917 C 174.295 82.784,173.919 82.947,173.755 83.372 C 173.520 83.986,173.446 83.985,172.751 83.355 C 172.051 82.723,171.950 82.721,171.268 83.339 C 170.865 83.703,170.431 83.898,170.304 83.771 C 170.177 83.644,169.954 83.916,169.808 84.376 C 169.662 84.835,169.367 85.104,169.154 84.971 C 168.940 84.839,168.499 84.952,168.173 85.222 C 167.679 85.633,167.625 85.589,167.845 84.957 C 168.088 84.255,168.062 84.258,167.489 84.996 C 167.149 85.433,166.973 85.956,167.097 86.157 C 167.222 86.359,167.139 86.410,166.913 86.270 C 166.688 86.131,166.088 86.377,165.581 86.817 C 164.870 87.433,164.584 87.500,164.335 87.109 C 164.118 86.766,164.010 86.750,164.006 87.061 C 163.995 87.875,161.532 90.349,160.953 90.127 C 160.603 89.992,160.400 90.191,160.400 90.669 C 160.400 91.084,160.050 91.676,159.621 91.985 C 159.193 92.293,158.926 92.680,159.028 92.845 C 159.130 93.010,159.027 93.260,158.800 93.400 C 158.573 93.540,158.491 93.823,158.617 94.028 C 158.744 94.232,158.595 94.400,158.288 94.400 C 157.549 94.400,156.674 96.275,157.248 96.630 C 157.504 96.788,157.285 97.297,156.685 97.944 C 155.680 99.025,155.251 102.461,156.003 103.400 C 156.179 103.620,156.390 104.250,156.471 104.800 C 156.552 105.350,156.840 105.755,157.109 105.700 C 157.379 105.645,157.600 105.916,157.600 106.301 C 157.600 106.687,158.140 107.512,158.800 108.135 C 159.460 108.758,160.000 109.427,160.000 109.621 C 160.000 109.816,160.239 109.883,160.531 109.771 C 160.823 109.659,161.588 109.787,162.231 110.056 C 162.874 110.325,164.014 110.503,164.764 110.453 C 165.515 110.402,166.265 110.582,166.432 110.852 C 166.873 111.565,167.882 111.614,169.102 110.981 C 169.784 110.627,170.259 110.571,170.417 110.827 C 170.553 111.047,170.964 111.112,171.330 110.972 C 171.696 110.831,171.872 110.510,171.721 110.258 C 171.548 109.970,171.675 109.985,172.064 110.300 C 172.579 110.717,172.829 110.606,173.579 109.627 C 174.073 108.982,174.713 108.545,175.000 108.655 C 175.287 108.765,176.340 108.483,177.339 108.028 C 178.338 107.573,179.358 107.200,179.605 107.200 C 179.881 107.200,179.950 106.872,179.784 106.350 C 179.631 105.868,179.673 105.598,179.881 105.726 C 180.082 105.851,180.747 105.423,181.357 104.776 C 181.968 104.129,182.716 103.600,183.020 103.600 C 183.843 103.600,184.467 102.227,183.901 101.661 C 183.553 101.313,183.588 101.200,184.045 101.200 C 184.913 101.200,186.445 98.983,186.135 98.176 C 185.935 97.654,186.048 97.561,186.651 97.753 C 187.432 98.000,187.739 96.180,187.657 91.800 C 187.612 89.421,187.541 89.170,186.776 88.692 C 186.313 88.403,186.000 87.763,186.000 87.104 C 186.000 86.496,185.775 85.993,185.500 85.984 C 185.225 85.975,184.386 85.442,183.635 84.800 C 182.884 84.158,182.115 83.729,181.925 83.846 C 181.735 83.964,181.630 83.834,181.690 83.559 C 181.822 82.957,179.317 82.713,178.342 83.232 C 177.899 83.469,177.524 83.390,177.193 82.992 C 176.633 82.317,176.149 82.236,175.823 82.762 M135.150 95.751 C 135.123 95.888,135.055 96.180,135.000 96.400 C 134.945 96.620,134.878 96.896,134.850 97.014 C 134.822 97.132,134.413 97.021,133.939 96.768 C 133.217 96.381,133.117 96.406,133.315 96.923 C 133.497 97.398,133.328 97.498,132.569 97.360 C 131.826 97.225,131.501 97.403,131.234 98.091 C 131.039 98.591,130.322 99.529,129.640 100.175 C 128.958 100.821,128.400 101.566,128.400 101.830 C 128.400 102.095,128.085 102.286,127.700 102.256 C 127.234 102.219,126.959 102.534,126.877 103.200 C 126.717 104.500,125.752 106.591,124.936 107.407 C 124.455 107.888,124.407 108.167,124.746 108.506 C 125.282 109.042,125.355 110.400,124.847 110.400 C 124.251 110.400,124.640 112.760,125.367 113.564 C 125.824 114.068,125.908 114.410,125.620 114.588 C 125.003 114.969,125.509 115.610,126.213 115.340 C 126.536 115.216,126.800 115.294,126.800 115.514 C 126.800 117.144,131.926 115.884,134.332 113.662 C 135.204 112.858,136.160 112.200,136.458 112.200 C 136.768 112.200,136.979 111.814,136.952 111.300 C 136.926 110.805,137.026 110.400,137.175 110.400 C 137.833 110.400,140.070 106.579,140.132 105.349 C 140.170 104.614,140.402 103.935,140.649 103.839 C 140.895 103.743,141.047 103.206,140.985 102.644 C 140.924 102.083,140.992 101.640,141.137 101.660 C 141.906 101.762,141.986 101.515,141.438 100.733 C 140.889 99.949,140.896 99.817,141.515 99.353 C 142.150 98.877,142.133 98.792,141.284 98.186 C 140.780 97.826,140.015 97.154,139.584 96.691 C 139.153 96.228,138.800 95.995,138.800 96.174 C 138.800 96.352,138.530 96.274,138.200 96.000 C 137.721 95.603,137.479 95.603,137.000 96.000 C 136.521 96.397,136.279 96.397,135.800 96.000 C 135.470 95.726,135.178 95.614,135.150 95.751 M262.717 96.300 C 262.489 96.575,262.054 96.800,261.751 96.800 C 261.448 96.800,261.200 96.948,261.200 97.128 C 261.200 97.308,260.679 98.039,260.043 98.752 C 258.985 99.937,258.930 100.141,259.403 101.124 C 259.687 101.716,259.874 102.920,259.818 103.800 C 259.721 105.322,260.540 107.008,261.183 106.610 C 261.335 106.517,261.446 106.836,261.430 107.320 C 261.407 107.980,261.600 108.171,262.200 108.083 C 262.850 107.989,262.889 108.041,262.405 108.365 C 261.898 108.706,261.941 108.886,262.705 109.598 C 263.197 110.056,263.600 110.654,263.600 110.927 C 263.600 111.199,264.105 111.867,264.722 112.411 C 265.338 112.955,265.963 113.715,266.109 114.100 C 266.255 114.485,266.730 114.800,267.164 114.800 C 267.598 114.800,268.059 114.972,268.189 115.183 C 268.319 115.393,268.681 115.467,268.993 115.347 C 269.417 115.184,269.513 115.390,269.372 116.165 C 269.221 116.999,269.342 117.200,269.992 117.200 C 270.493 117.200,270.802 116.934,270.806 116.500 C 270.811 115.944,270.884 115.914,271.163 116.354 C 271.414 116.750,271.840 116.817,272.657 116.589 C 273.286 116.413,273.954 116.305,274.142 116.348 C 274.648 116.466,275.623 115.561,275.392 115.187 C 275.282 115.010,275.458 114.599,275.782 114.275 C 276.106 113.951,276.298 113.307,276.208 112.843 C 276.099 112.276,276.251 112.000,276.672 112.000 C 277.196 112.000,277.213 111.898,276.775 111.370 C 276.341 110.847,276.350 110.676,276.826 110.370 C 277.188 110.136,277.252 109.889,276.999 109.700 C 276.779 109.535,276.337 108.860,276.017 108.200 C 275.696 107.540,275.184 106.696,274.878 106.325 C 274.572 105.954,274.441 105.458,274.586 105.222 C 274.732 104.987,274.577 104.689,274.242 104.561 C 273.828 104.402,273.659 103.866,273.716 102.893 C 273.792 101.589,273.701 101.454,272.695 101.391 C 271.413 101.312,271.536 101.425,270.660 99.517 C 270.266 98.659,269.767 98.114,269.478 98.226 C 269.202 98.331,268.622 98.130,268.189 97.779 C 267.755 97.428,267.670 97.269,268.000 97.427 C 268.478 97.655,268.467 97.572,267.946 97.017 C 267.587 96.634,266.822 96.294,266.247 96.261 C 265.671 96.227,265.200 96.110,265.200 96.000 C 265.200 95.574,263.110 95.827,262.717 96.300 M200.085 100.225 C 199.498 100.636,198.543 100.808,197.296 100.725 C 195.777 100.625,195.427 100.719,195.533 101.200 C 195.607 101.530,195.533 101.667,195.370 101.503 C 195.207 101.340,194.824 101.414,194.519 101.668 C 194.213 101.921,193.359 102.106,192.619 102.078 C 191.880 102.050,191.065 102.280,190.808 102.590 C 190.552 102.899,190.074 103.050,189.747 102.924 C 189.364 102.777,189.073 102.999,188.929 103.548 C 188.807 104.017,188.503 104.409,188.253 104.419 C 187.305 104.459,181.932 109.888,182.591 110.141 C 183.147 110.355,183.138 110.466,182.509 111.127 C 182.119 111.538,181.681 111.811,181.535 111.734 C 181.389 111.658,181.356 112.148,181.463 112.823 C 181.569 113.498,181.465 114.281,181.231 114.562 C 180.998 114.843,180.921 115.188,181.060 115.327 C 181.200 115.467,181.086 115.855,180.808 116.190 C 180.530 116.526,180.459 116.806,180.651 116.813 C 180.843 116.820,180.730 117.045,180.400 117.313 C 179.740 117.849,179.379 120.400,179.963 120.400 C 180.359 120.400,180.306 120.970,179.802 122.140 C 179.593 122.627,179.675 123.002,180.042 123.234 C 180.456 123.497,180.468 123.589,180.090 123.594 C 179.698 123.599,179.720 123.872,180.187 124.775 C 180.521 125.421,180.687 126.230,180.555 126.572 C 180.397 126.985,180.634 127.322,181.258 127.572 C 181.776 127.780,181.991 127.961,181.735 127.975 C 181.151 128.007,181.269 128.920,181.967 129.760 C 182.259 130.112,182.379 130.400,182.233 130.400 C 182.087 130.400,182.425 130.893,182.984 131.496 C 183.543 132.099,184.000 132.779,184.000 133.007 C 184.000 133.632,185.581 134.859,186.029 134.582 C 186.244 134.449,186.394 134.489,186.363 134.670 C 186.219 135.495,186.445 136.000,186.957 136.000 C 187.264 136.000,187.622 136.281,187.754 136.625 C 187.886 136.969,188.190 137.130,188.430 136.982 C 188.706 136.811,188.817 137.042,188.733 137.615 C 188.596 138.544,188.930 138.721,191.269 138.959 C 191.857 139.019,192.807 139.375,193.381 139.750 C 193.954 140.126,194.577 140.338,194.766 140.221 C 194.955 140.104,195.318 140.260,195.572 140.566 C 196.059 141.153,196.668 141.185,197.500 140.665 C 197.775 140.493,198.000 140.528,198.000 140.742 C 198.000 140.956,198.675 141.055,199.500 140.961 C 200.325 140.867,201.720 140.727,202.600 140.649 C 204.701 140.464,207.504 139.618,209.000 138.718 C 209.660 138.321,210.778 137.728,211.485 137.399 C 213.096 136.650,215.663 134.425,215.402 134.003 C 215.295 133.830,215.661 133.390,216.216 133.026 C 216.771 132.662,217.121 132.196,216.994 131.991 C 216.653 131.439,217.535 130.000,218.214 130.000 C 218.896 130.000,218.987 128.696,218.383 127.568 C 218.153 127.139,218.108 126.812,218.283 126.842 C 219.095 126.978,219.444 126.711,219.950 125.568 C 220.390 124.575,220.397 124.245,219.989 123.868 C 219.595 123.504,219.554 123.524,219.803 123.962 C 220.023 124.348,219.972 124.430,219.640 124.225 C 219.272 123.997,219.304 123.700,219.774 122.984 C 220.162 122.391,220.242 121.950,219.989 121.793 C 219.768 121.657,219.715 121.337,219.872 121.083 C 220.770 119.631,220.258 115.034,219.069 113.872 C 218.136 112.960,218.004 112.645,218.440 112.375 C 218.881 112.103,218.892 111.932,218.497 111.537 C 218.223 111.263,218.000 110.738,218.000 110.369 C 218.000 110.000,217.630 109.451,217.178 109.149 C 216.726 108.847,216.309 108.280,216.253 107.889 C 216.196 107.498,215.981 107.228,215.775 107.289 C 215.569 107.350,215.458 107.580,215.529 107.800 C 215.599 108.020,215.419 107.966,215.129 107.680 C 214.838 107.394,214.599 107.034,214.597 106.880 C 214.589 106.096,213.148 104.712,212.285 104.660 C 211.661 104.622,211.374 104.411,211.500 104.084 C 211.609 103.800,211.541 103.611,211.349 103.665 C 211.157 103.719,209.830 103.189,208.400 102.489 C 206.655 101.634,205.438 101.281,204.700 101.415 C 203.943 101.553,203.600 101.447,203.600 101.075 C 203.600 100.504,202.524 100.429,201.693 100.943 C 201.247 101.218,201.015 100.771,201.153 99.900 C 201.219 99.479,201.098 99.516,200.085 100.225 M145.719 109.109 C 145.336 109.389,144.786 109.527,144.496 109.415 C 143.546 109.051,142.368 110.074,142.920 110.784 C 143.343 111.326,143.315 111.333,142.688 110.841 C 142.062 110.350,141.853 110.398,140.953 111.241 C 140.390 111.769,139.540 112.200,139.065 112.200 C 138.406 112.200,138.223 112.415,138.295 113.100 C 138.348 113.595,138.233 114.000,138.041 114.000 C 137.418 114.000,133.187 117.693,133.282 118.153 C 133.334 118.399,133.028 119.121,132.603 119.758 C 132.179 120.396,131.775 121.288,131.706 121.741 C 131.636 122.194,131.381 122.688,131.139 122.838 C 130.896 122.988,130.805 123.284,130.936 123.496 C 131.067 123.709,130.929 124.217,130.630 124.627 C 130.264 125.128,130.197 125.667,130.427 126.272 C 130.623 126.788,130.616 127.267,130.409 127.394 C 130.211 127.517,130.118 127.973,130.202 128.408 C 130.293 128.883,130.137 129.200,129.812 129.200 C 129.021 129.200,129.341 130.499,130.207 130.803 C 130.671 130.965,130.783 131.163,130.509 131.333 C 129.994 131.651,130.055 132.267,130.725 133.484 C 130.992 133.970,131.163 134.510,131.105 134.684 C 131.047 134.858,131.153 135.036,131.340 135.080 C 131.661 135.156,132.850 137.418,133.324 138.855 C 133.474 139.309,133.948 139.487,134.870 139.436 C 135.602 139.396,136.779 139.700,137.487 140.113 C 138.195 140.526,138.969 140.743,139.208 140.595 C 139.447 140.448,140.488 140.276,141.521 140.214 C 143.822 140.075,144.885 139.665,144.521 139.058 C 144.370 138.806,144.551 138.847,144.923 139.149 C 145.384 139.523,145.600 139.551,145.600 139.236 C 145.600 138.983,145.915 138.656,146.300 138.510 C 146.685 138.364,147.262 137.986,147.582 137.669 C 147.980 137.275,148.212 137.236,148.315 137.546 C 148.529 138.187,149.200 138.111,149.200 137.446 C 149.200 137.141,149.658 136.592,150.218 136.225 C 150.778 135.858,151.401 135.123,151.604 134.590 C 151.806 134.058,152.427 133.508,152.983 133.369 C 153.539 133.229,153.908 132.974,153.802 132.803 C 153.696 132.631,153.877 132.268,154.204 131.996 C 154.532 131.724,154.800 131.254,154.800 130.951 C 154.800 130.648,154.963 130.400,155.163 130.400 C 155.362 130.400,155.431 130.040,155.316 129.600 C 155.190 129.119,155.304 128.800,155.600 128.800 C 155.891 128.800,156.010 128.482,155.891 128.026 C 155.752 127.496,156.053 126.972,156.844 126.366 C 157.809 125.627,157.917 125.379,157.500 124.864 C 157.185 124.475,157.170 124.348,157.458 124.521 C 157.710 124.672,158.031 124.496,158.172 124.130 C 158.312 123.764,158.247 123.353,158.027 123.217 C 157.771 123.059,157.827 122.584,158.181 121.902 C 158.808 120.694,158.756 119.519,158.065 119.288 C 157.364 119.055,157.507 118.121,158.289 117.821 C 158.838 117.611,158.868 117.489,158.439 117.224 C 158.142 117.041,157.900 116.421,157.900 115.845 C 157.900 115.270,157.743 114.800,157.550 114.800 C 157.358 114.800,157.200 114.477,157.200 114.081 C 157.200 113.176,154.397 110.400,153.483 110.400 C 153.107 110.400,152.845 110.186,152.900 109.924 C 152.955 109.662,152.640 109.381,152.200 109.300 C 151.760 109.219,151.130 109.048,150.800 108.920 C 149.666 108.480,146.414 108.600,145.719 109.109 M251.335 109.704 C 251.216 109.897,250.841 109.948,250.502 109.818 C 250.162 109.687,249.556 109.878,249.155 110.240 C 248.755 110.603,247.966 110.900,247.403 110.900 C 246.840 110.900,246.069 111.283,245.690 111.750 C 245.310 112.218,244.730 112.600,244.400 112.600 C 244.024 112.600,243.785 113.005,243.760 113.687 C 243.738 114.285,243.522 115.012,243.281 115.302 C 243.037 115.596,242.911 116.751,242.997 117.907 C 243.104 119.344,243.008 119.956,242.685 119.892 C 242.071 119.771,241.821 121.502,242.360 122.152 C 242.655 122.507,242.654 122.786,242.356 123.084 C 242.055 123.385,242.058 123.589,242.365 123.778 C 242.604 123.926,242.800 124.467,242.800 124.981 C 242.800 125.494,243.085 126.024,243.433 126.157 C 243.782 126.291,243.984 126.625,243.884 126.900 C 243.784 127.175,244.070 127.805,244.521 128.300 C 245.127 128.967,245.192 129.203,244.770 129.213 C 244.354 129.222,244.400 129.377,244.940 129.786 C 245.347 130.094,245.561 130.539,245.416 130.773 C 245.271 131.008,245.343 131.200,245.576 131.200 C 245.809 131.200,246.000 131.448,246.000 131.751 C 246.000 132.054,246.274 132.530,246.610 132.808 C 246.945 133.086,247.122 133.411,247.003 133.530 C 246.884 133.649,247.330 133.975,247.993 134.254 C 248.657 134.533,249.200 134.969,249.200 135.223 C 249.200 136.181,251.072 137.968,251.563 137.477 C 251.914 137.126,252.083 137.230,252.260 137.907 C 252.394 138.419,252.804 138.800,253.223 138.800 C 253.624 138.800,254.066 138.983,254.204 139.207 C 254.342 139.430,254.604 139.521,254.786 139.409 C 254.967 139.296,255.229 139.499,255.368 139.860 C 255.506 140.220,255.728 140.405,255.862 140.271 C 255.996 140.138,256.487 140.239,256.953 140.496 C 257.419 140.753,258.246 141.028,258.790 141.108 C 259.335 141.187,260.003 141.436,260.275 141.662 C 260.621 141.950,261.151 141.884,262.034 141.443 C 262.729 141.096,263.463 140.915,263.666 141.041 C 263.869 141.166,264.326 141.028,264.682 140.734 C 265.038 140.440,265.705 140.200,266.165 140.200 C 266.708 140.200,266.981 139.960,266.947 139.513 C 266.915 139.110,267.372 138.614,268.051 138.313 C 268.688 138.031,269.140 137.620,269.055 137.398 C 268.970 137.177,269.148 136.765,269.450 136.482 C 269.753 136.200,270.000 136.102,270.000 136.264 C 270.000 136.427,270.197 136.363,270.437 136.123 C 270.753 135.807,270.742 135.439,270.397 134.795 C 270.079 134.201,270.067 133.994,270.360 134.175 C 270.635 134.345,270.800 134.073,270.800 133.447 C 270.800 132.897,270.589 132.317,270.332 132.158 C 270.025 131.968,270.181 131.751,270.787 131.527 C 271.625 131.217,271.654 131.121,271.105 130.492 C 270.668 129.993,270.542 129.159,270.653 127.500 C 270.783 125.579,270.701 125.200,270.157 125.200 C 269.709 125.200,269.570 124.957,269.711 124.419 C 269.823 123.990,269.791 123.585,269.639 123.519 C 269.271 123.361,267.426 119.487,267.528 119.088 C 267.572 118.916,267.246 118.387,266.804 117.912 C 266.362 117.438,266.000 117.186,266.000 117.353 C 266.000 117.520,265.719 117.376,265.374 117.032 C 265.030 116.688,264.879 116.180,265.039 115.903 C 265.198 115.626,265.179 115.535,264.997 115.701 C 264.539 116.116,263.159 114.798,263.474 114.247 C 263.614 114.001,263.590 113.925,263.420 114.077 C 263.251 114.230,262.432 113.925,261.600 113.400 C 260.768 112.875,260.004 112.530,259.901 112.632 C 259.798 112.735,259.495 112.556,259.228 112.233 C 258.960 111.911,258.455 111.757,258.105 111.892 C 257.673 112.058,257.565 111.980,257.769 111.650 C 258.167 111.006,257.223 109.906,256.507 110.180 C 256.196 110.300,255.550 110.187,255.071 109.930 C 254.015 109.364,251.635 109.220,251.335 109.704 M162.215 133.240 C 161.321 133.792,160.954 133.853,160.721 133.486 C 160.510 133.154,160.410 133.230,160.406 133.724 C 160.403 134.122,160.231 134.343,160.025 134.215 C 159.818 134.088,159.464 134.302,159.237 134.692 C 159.010 135.081,158.819 135.252,158.812 135.071 C 158.805 134.891,158.525 135.018,158.188 135.354 C 157.850 135.693,157.283 135.853,156.919 135.714 C 156.418 135.521,156.324 135.626,156.526 136.151 C 156.672 136.531,156.627 136.740,156.426 136.616 C 156.225 136.492,155.462 136.947,154.730 137.628 C 153.999 138.309,152.994 139.028,152.497 139.225 C 152.000 139.421,151.617 139.721,151.644 139.891 C 151.801 140.852,151.508 141.687,150.800 142.293 C 150.360 142.670,150.000 143.151,150.000 143.363 C 150.000 143.575,149.625 144.148,149.166 144.636 C 148.501 145.344,148.418 145.686,148.756 146.318 C 149.109 146.977,149.040 147.149,148.348 147.329 C 147.486 147.555,147.517 148.688,148.380 148.490 C 148.644 148.430,148.744 148.568,148.602 148.797 C 148.461 149.026,148.177 149.109,147.972 148.983 C 147.768 148.856,147.600 149.213,147.600 149.776 C 147.600 150.339,147.761 150.800,147.957 150.800 C 148.165 150.800,148.158 151.499,147.941 152.464 C 147.337 155.155,147.750 158.683,148.802 159.802 C 149.418 160.458,149.640 161.080,149.506 161.780 C 149.399 162.341,149.441 162.800,149.600 162.800 C 150.512 162.800,152.591 165.477,152.473 166.500 C 152.361 167.481,152.475 167.600,153.531 167.600 C 154.771 167.600,155.349 168.345,154.939 169.414 C 154.749 169.911,154.943 169.986,155.952 169.808 C 156.718 169.674,157.200 169.756,157.200 170.023 C 157.200 170.946,158.348 171.656,159.149 171.228 C 159.718 170.923,160.038 170.963,160.387 171.385 C 160.646 171.697,161.115 171.854,161.429 171.733 C 161.743 171.613,162.000 171.678,162.000 171.877 C 162.000 172.077,162.405 172.257,162.900 172.278 C 164.837 172.360,166.000 172.588,166.000 172.887 C 166.000 173.059,166.887 173.161,167.971 173.114 C 169.079 173.066,169.840 172.864,169.709 172.652 C 169.579 172.442,169.693 172.410,169.968 172.580 C 170.871 173.139,172.992 173.096,173.675 172.505 C 174.046 172.184,174.542 172.041,174.778 172.186 C 175.013 172.332,175.306 172.189,175.429 171.870 C 175.571 171.498,175.967 171.370,176.526 171.514 C 177.287 171.709,177.332 171.656,176.877 171.101 C 176.424 170.548,176.465 170.492,177.177 170.678 C 177.929 170.875,178.202 170.510,178.051 169.511 C 178.027 169.353,178.438 169.386,178.964 169.586 C 179.985 169.975,181.516 168.881,180.901 168.203 C 180.735 168.021,180.801 167.986,181.047 168.126 C 181.677 168.486,182.947 166.959,182.653 166.194 C 182.513 165.828,182.576 165.662,182.803 165.802 C 183.019 165.936,183.406 165.585,183.663 165.023 C 183.919 164.460,184.277 164.000,184.459 164.000 C 184.641 164.000,185.052 163.370,185.374 162.600 C 185.696 161.830,186.178 161.200,186.446 161.200 C 186.714 161.200,186.816 161.083,186.673 160.940 C 186.530 160.796,186.725 160.442,187.106 160.152 C 187.606 159.772,187.647 159.622,187.251 159.613 C 186.786 159.602,186.786 159.497,187.251 158.923 C 187.688 158.384,187.691 158.312,187.267 158.567 C 186.876 158.802,186.904 158.558,187.373 157.652 C 187.874 156.684,187.958 155.743,187.762 153.308 C 187.625 151.599,187.479 149.632,187.437 148.938 C 187.395 148.244,187.153 147.425,186.897 147.117 C 186.642 146.810,186.544 146.135,186.680 145.617 C 186.823 145.069,186.768 144.772,186.549 144.908 C 186.341 145.036,186.139 144.839,186.099 144.471 C 185.868 142.334,185.659 141.840,184.861 141.544 C 184.377 141.365,183.877 140.946,183.749 140.612 C 183.621 140.278,183.310 140.122,183.058 140.266 C 182.806 140.410,182.730 140.385,182.888 140.209 C 183.281 139.774,181.685 137.600,180.973 137.600 C 180.658 137.600,180.400 137.411,180.400 137.180 C 180.400 136.948,179.775 136.498,179.012 136.179 C 178.248 135.860,177.236 135.075,176.763 134.435 C 175.999 133.402,175.694 133.284,174.051 133.383 C 172.973 133.448,171.822 133.262,171.296 132.936 C 170.637 132.528,170.183 132.488,169.622 132.788 C 168.731 133.265,166.800 133.342,166.800 132.900 C 166.799 132.269,163.375 132.523,162.215 133.240 M232.300 133.076 C 231.915 133.176,231.600 133.448,231.600 133.678 C 231.600 133.948,231.398 133.930,231.035 133.629 C 230.598 133.267,230.129 133.302,228.971 133.787 C 228.146 134.131,227.151 134.311,226.760 134.187 C 226.295 134.040,225.895 134.249,225.604 134.792 C 225.360 135.249,225.004 135.526,224.813 135.408 C 224.289 135.084,222.318 135.943,222.587 136.379 C 222.717 136.589,222.436 136.967,221.963 137.220 C 221.490 137.473,221.214 137.501,221.349 137.282 C 221.485 137.063,221.326 136.781,220.998 136.654 C 220.589 136.497,220.400 136.681,220.400 137.236 C 220.400 137.682,220.232 137.943,220.026 137.816 C 219.543 137.517,217.383 139.648,217.522 140.286 C 217.658 140.905,216.165 142.422,215.770 142.067 C 215.606 141.920,215.585 142.115,215.723 142.499 C 215.896 142.979,215.654 143.408,214.951 143.869 C 214.122 144.412,213.958 144.790,214.084 145.869 C 214.169 146.601,214.116 147.200,213.966 147.200 C 213.250 147.200,212.353 149.261,212.822 149.827 C 213.084 150.142,213.128 150.400,212.921 150.400 C 212.713 150.400,212.511 151.570,212.472 153.000 C 212.432 154.430,212.562 155.600,212.760 155.600 C 212.959 155.600,213.126 156.185,213.132 156.900 C 213.147 158.674,213.306 159.245,214.098 160.375 C 214.598 161.089,214.663 161.484,214.344 161.868 C 214.021 162.256,214.071 162.452,214.538 162.631 C 214.995 162.807,215.101 163.194,214.929 164.054 C 214.710 165.151,214.767 165.222,215.734 165.046 C 216.667 164.877,216.802 165.009,217.040 166.329 C 217.408 168.373,217.574 168.547,218.421 167.781 C 219.123 167.146,219.176 167.165,219.421 168.142 C 219.564 168.709,219.887 169.134,220.140 169.087 C 220.393 169.039,220.556 169.221,220.503 169.491 C 220.387 170.078,222.656 171.336,223.212 170.993 C 223.425 170.861,223.600 170.957,223.600 171.206 C 223.600 171.455,223.908 171.599,224.285 171.527 C 224.661 171.454,225.412 171.806,225.954 172.308 C 226.717 173.015,227.277 173.182,228.441 173.048 C 229.405 172.937,230.011 173.053,230.133 173.371 C 230.376 174.004,233.547 174.142,234.260 173.550 C 234.661 173.218,234.800 173.222,234.800 173.565 C 234.800 173.906,235.037 173.897,235.700 173.532 C 236.195 173.259,236.915 173.084,237.300 173.143 C 237.685 173.202,238.000 173.084,238.000 172.881 C 238.000 172.678,238.629 172.561,239.399 172.622 C 240.368 172.699,240.917 172.529,241.187 172.067 C 241.444 171.626,241.580 171.579,241.588 171.929 C 241.597 172.325,241.758 172.299,242.232 171.825 C 242.580 171.477,243.030 171.295,243.232 171.420 C 243.435 171.545,243.600 171.262,243.600 170.790 C 243.600 170.291,243.805 170.002,244.091 170.097 C 244.362 170.187,244.936 169.932,245.367 169.530 C 245.798 169.129,246.366 168.800,246.629 168.800 C 246.892 168.800,247.201 168.440,247.316 168.000 C 247.431 167.560,247.812 167.200,248.163 167.200 C 248.533 167.200,248.800 166.865,248.800 166.400 C 248.800 165.960,249.001 165.600,249.247 165.600 C 249.492 165.600,249.603 165.256,249.493 164.835 C 249.360 164.326,249.533 164.006,250.007 163.882 C 250.399 163.780,250.936 163.292,251.200 162.800 C 251.491 162.256,251.513 162.006,251.257 162.165 C 251.024 162.309,251.082 161.949,251.385 161.365 C 251.688 160.781,251.869 159.960,251.789 159.541 C 251.708 159.122,251.792 158.871,251.975 158.985 C 252.503 159.311,252.757 157.717,252.257 157.217 C 251.923 156.883,251.952 156.677,252.369 156.419 C 253.337 155.821,253.383 149.726,252.424 149.213 C 251.659 148.803,251.569 148.206,252.135 147.300 C 252.307 147.025,252.296 146.800,252.111 146.800 C 251.745 146.800,250.764 144.624,250.622 143.497 C 250.477 142.347,248.122 139.877,247.524 140.247 C 247.351 140.354,247.306 140.189,247.425 139.880 C 247.549 139.555,247.204 139.033,246.607 138.642 C 246.039 138.269,245.685 137.786,245.821 137.566 C 245.975 137.317,245.674 137.267,245.018 137.431 C 244.245 137.625,243.999 137.550,244.084 137.147 C 244.148 136.846,243.981 136.643,243.714 136.695 C 243.420 136.753,243.326 136.538,243.475 136.149 C 243.665 135.652,243.542 135.565,242.928 135.759 C 242.404 135.926,241.887 135.738,241.405 135.206 C 241.004 134.763,240.506 134.400,240.298 134.400 C 240.091 134.400,239.296 134.104,238.533 133.742 C 237.277 133.145,237.087 133.142,236.522 133.706 C 235.958 134.271,235.770 134.257,234.537 133.565 C 233.788 133.144,233.136 132.821,233.088 132.846 C 233.040 132.872,232.685 132.975,232.300 133.076 M119.425 137.879 C 119.261 138.305,118.890 138.409,118.169 138.228 C 117.236 137.994,117.156 138.070,117.272 139.085 C 117.343 139.698,117.259 140.239,117.086 140.286 C 116.351 140.486,115.392 141.818,115.297 142.771 C 115.241 143.337,115.160 144.160,115.118 144.600 C 115.076 145.040,114.780 145.598,114.460 145.839 C 114.015 146.175,113.993 146.349,114.369 146.581 C 114.730 146.804,114.621 147.139,113.960 147.842 C 113.407 148.431,113.260 148.800,113.579 148.800 C 113.998 148.800,114.001 148.917,113.592 149.409 C 113.163 149.926,113.201 149.975,113.843 149.734 C 114.505 149.486,114.533 149.533,114.066 150.108 C 113.772 150.469,113.645 150.949,113.784 151.174 C 113.923 151.399,113.840 151.951,113.600 152.400 C 113.360 152.849,113.296 153.431,113.458 153.694 C 113.620 153.956,113.818 154.803,113.897 155.577 C 113.976 156.350,114.276 157.256,114.564 157.591 C 114.852 157.926,115.045 158.890,114.993 159.734 C 114.910 161.095,114.990 161.244,115.707 161.056 C 116.314 160.897,116.401 160.959,116.058 161.302 C 115.390 161.970,115.481 162.230,116.649 162.995 C 117.226 163.374,117.576 163.484,117.426 163.241 C 117.276 162.999,117.262 162.800,117.396 162.800 C 117.530 162.800,117.969 163.538,118.373 164.439 C 118.777 165.341,119.173 165.905,119.254 165.693 C 119.340 165.465,120.251 165.586,121.470 165.987 C 123.859 166.773,126.675 165.495,125.547 164.137 C 125.282 163.817,125.230 163.603,125.432 163.662 C 126.088 163.854,127.600 162.627,127.600 161.904 C 127.600 161.517,127.792 161.200,128.027 161.200 C 128.262 161.200,128.348 160.865,128.218 160.456 C 128.080 160.022,128.243 159.496,128.610 159.192 C 129.054 158.823,129.104 158.588,128.781 158.388 C 128.452 158.185,128.512 157.744,128.997 156.806 C 129.366 156.091,129.580 155.168,129.472 154.753 C 129.364 154.339,129.438 154.000,129.637 154.000 C 129.837 154.000,130.000 153.730,130.000 153.400 C 130.000 153.070,129.820 152.800,129.600 152.800 C 129.380 152.800,129.200 152.440,129.200 152.000 C 129.200 151.560,129.368 151.200,129.573 151.200 C 129.779 151.200,129.931 150.660,129.912 150.000 C 129.894 149.340,129.663 148.800,129.401 148.800 C 129.128 148.800,128.956 148.328,128.999 147.700 C 129.041 147.095,128.878 146.340,128.637 146.023 C 128.307 145.588,128.321 145.519,128.695 145.744 C 129.032 145.946,129.114 145.842,128.953 145.421 C 128.822 145.079,128.571 144.800,128.395 144.800 C 128.219 144.800,128.176 144.412,128.300 143.937 C 128.454 143.351,128.379 143.166,128.068 143.358 C 127.777 143.538,127.691 143.429,127.832 143.061 C 127.954 142.742,127.870 142.367,127.645 142.228 C 127.419 142.088,127.331 141.724,127.448 141.418 C 127.687 140.797,126.285 139.866,125.788 140.314 C 125.614 140.471,125.589 140.395,125.731 140.145 C 125.874 139.895,125.723 139.468,125.396 139.196 C 125.068 138.924,124.800 138.480,124.800 138.209 C 124.800 137.895,124.254 137.736,123.300 137.772 C 122.475 137.804,121.318 137.704,120.729 137.551 C 119.953 137.349,119.594 137.440,119.425 137.879 M276.946 140.998 C 276.819 141.326,276.575 141.508,276.402 141.401 C 276.229 141.294,275.794 141.655,275.435 142.203 C 275.075 142.752,274.516 143.200,274.191 143.200 C 273.866 143.200,273.600 143.448,273.600 143.751 C 273.600 144.054,273.334 144.523,273.009 144.793 C 272.684 145.062,272.477 145.669,272.549 146.142 C 272.621 146.614,272.459 147.180,272.189 147.400 C 271.512 147.953,271.124 150.306,271.656 150.634 C 271.948 150.815,271.919 151.003,271.567 151.220 C 270.805 151.691,270.705 153.326,271.362 154.591 C 271.935 155.696,271.936 156.324,271.366 157.766 C 271.182 158.232,271.216 158.437,271.453 158.291 C 271.678 158.152,271.808 158.548,271.761 159.225 C 271.716 159.871,271.813 160.400,271.976 160.400 C 272.138 160.400,272.231 160.985,272.182 161.700 C 272.125 162.536,272.377 163.310,272.888 163.870 C 273.326 164.349,273.581 164.908,273.454 165.112 C 272.894 166.019,277.286 168.800,279.279 168.800 C 280.571 168.800,284.185 166.696,284.621 165.690 C 284.786 165.310,284.988 164.648,285.070 164.217 C 285.153 163.787,285.441 163.295,285.710 163.123 C 285.980 162.952,286.020 162.804,285.800 162.794 C 285.580 162.784,285.715 162.592,286.100 162.368 C 286.919 161.891,287.045 160.400,286.267 160.400 C 285.973 160.400,285.733 160.130,285.733 159.800 C 285.733 159.470,285.854 159.200,286.002 159.200 C 286.558 159.200,287.070 157.347,286.900 155.947 C 286.801 155.134,286.916 154.375,287.162 154.224 C 287.860 153.792,287.670 153.200,286.832 153.200 C 286.164 153.200,286.108 153.031,286.397 151.900 C 286.809 150.291,286.699 149.042,286.080 148.297 C 285.820 147.983,285.732 147.602,285.884 147.449 C 286.037 147.297,285.675 146.721,285.081 146.170 C 284.486 145.619,284.000 144.905,284.000 144.584 C 284.000 144.263,283.784 144.000,283.520 144.000 C 283.147 144.000,283.147 143.893,283.520 143.520 C 284.297 142.743,284.073 142.293,283.012 142.496 C 282.468 142.600,282.126 142.519,282.251 142.317 C 282.376 142.115,282.159 141.597,281.769 141.165 C 281.230 140.570,280.984 140.503,280.746 140.887 C 280.497 141.290,280.332 141.292,279.937 140.897 C 279.244 140.204,277.224 140.272,276.946 140.998 M137.087 164.855 C 136.700 165.072,136.506 165.449,136.657 165.693 C 136.919 166.117,136.776 166.086,134.909 165.322 C 134.639 165.212,134.204 165.594,133.941 166.170 C 133.678 166.747,133.089 167.313,132.631 167.428 C 131.769 167.645,130.664 169.457,131.032 170.052 C 131.147 170.238,130.962 170.284,130.621 170.153 C 129.910 169.880,129.841 170.156,130.372 171.148 C 130.728 171.812,130.392 172.906,129.855 172.834 C 129.184 172.744,129.139 172.844,129.600 173.400 C 129.874 173.730,129.941 174.000,129.749 174.001 C 129.557 174.001,129.362 174.541,129.316 175.201 C 129.270 175.860,129.405 176.400,129.616 176.400 C 130.115 176.400,130.110 177.847,129.607 178.786 C 129.313 179.336,129.369 179.579,129.833 179.757 C 130.173 179.888,130.339 180.176,130.202 180.397 C 130.065 180.619,130.215 180.800,130.535 180.800 C 130.962 180.800,131.095 181.232,131.033 182.430 C 130.968 183.710,131.146 184.214,131.862 184.777 C 132.363 185.171,132.659 185.608,132.520 185.747 C 132.381 185.886,132.679 186.000,133.182 186.000 C 133.895 186.000,134.001 186.117,133.660 186.527 C 133.182 187.103,134.258 188.665,136.700 190.937 C 137.415 191.603,138.000 192.350,138.000 192.599 C 138.000 192.847,138.645 193.304,139.433 193.613 C 140.221 193.922,141.037 194.496,141.247 194.888 C 141.457 195.279,141.812 195.600,142.038 195.600 C 142.263 195.600,142.336 195.420,142.200 195.200 C 142.064 194.980,142.143 194.800,142.376 194.800 C 142.609 194.800,142.800 194.957,142.800 195.148 C 142.800 195.339,143.205 195.474,143.700 195.448 C 144.225 195.420,144.558 195.608,144.500 195.900 C 144.438 196.209,144.849 196.400,145.576 196.400 C 146.223 196.400,146.856 196.568,146.983 196.772 C 147.251 197.206,150.400 197.161,150.400 196.723 C 150.400 196.056,152.092 195.501,152.435 196.056 C 152.793 196.636,155.570 194.097,156.106 192.700 C 156.254 192.315,156.545 192.000,156.752 192.000 C 156.959 192.000,157.084 191.689,157.028 191.308 C 156.972 190.928,157.160 190.383,157.446 190.097 C 157.732 189.811,157.873 189.335,157.760 189.040 C 157.647 188.745,157.836 188.221,158.180 187.877 C 158.546 187.512,158.645 187.151,158.418 187.011 C 158.177 186.862,158.168 186.411,158.394 185.817 C 158.652 185.138,158.601 184.733,158.220 184.416 C 157.619 183.918,157.867 182.271,158.485 182.653 C 158.702 182.787,158.673 182.510,158.420 182.037 C 158.167 181.564,157.789 181.283,157.580 181.412 C 157.227 181.630,157.023 181.059,157.167 180.258 C 157.200 180.070,157.020 179.665,156.765 179.358 C 156.413 178.934,156.418 178.660,156.785 178.218 C 157.342 177.547,157.020 176.800,156.176 176.800 C 155.859 176.800,155.600 176.543,155.600 176.229 C 155.600 175.915,155.156 175.309,154.614 174.882 C 154.071 174.455,153.721 174.013,153.835 173.899 C 153.949 173.785,153.558 173.311,152.967 172.846 C 152.376 172.381,152.050 172.000,152.242 172.000 C 152.434 172.000,152.095 171.539,151.487 170.976 C 150.880 170.412,150.490 169.778,150.621 169.566 C 150.752 169.354,150.711 169.213,150.530 169.254 C 149.897 169.394,148.614 168.638,147.427 167.423 C 146.769 166.750,146.019 166.248,145.761 166.307 C 145.502 166.366,145.182 166.130,145.048 165.782 C 144.899 165.394,144.611 165.271,144.303 165.463 C 143.399 166.028,142.875 165.932,142.674 165.163 C 142.493 164.470,142.385 164.455,141.367 164.983 C 140.384 165.493,140.205 165.486,139.790 164.919 C 139.444 164.446,139.245 164.404,139.025 164.759 C 138.829 165.077,138.571 165.108,138.260 164.850 C 137.956 164.598,137.544 164.600,137.087 164.855 M196.863 165.697 C 196.609 165.951,196.400 166.012,196.400 165.831 C 196.400 165.650,196.130 165.726,195.800 166.000 C 195.470 166.274,195.200 166.364,195.200 166.200 C 195.200 166.036,194.951 166.109,194.646 166.361 C 194.342 166.614,193.433 166.846,192.625 166.876 C 191.288 166.926,190.057 167.923,190.627 168.494 C 190.737 168.603,190.408 168.647,189.897 168.591 C 189.385 168.535,188.625 168.739,188.207 169.044 C 187.742 169.384,187.651 169.600,187.973 169.600 C 188.367 169.600,188.387 169.734,188.052 170.137 C 187.807 170.432,187.725 170.792,187.870 170.937 C 188.015 171.082,187.936 171.200,187.695 171.200 C 187.454 171.200,186.971 171.486,186.621 171.837 C 186.270 172.187,185.673 172.519,185.292 172.575 C 184.911 172.631,184.599 172.839,184.597 173.038 C 184.593 173.554,183.364 175.231,183.148 175.015 C 183.049 174.915,182.939 175.232,182.903 175.717 C 182.868 176.203,182.470 176.847,182.019 177.149 C 181.223 177.682,180.863 179.200,181.533 179.200 C 181.933 179.200,181.884 180.416,181.457 181.107 C 181.290 181.378,181.274 181.600,181.422 181.600 C 181.571 181.600,181.429 182.005,181.107 182.500 C 180.785 182.995,180.505 184.012,180.486 184.761 C 180.466 185.509,180.236 186.254,179.974 186.416 C 179.712 186.578,179.627 186.919,179.784 187.175 C 179.998 187.521,180.231 187.507,180.701 187.119 C 181.252 186.665,181.279 186.700,180.916 187.400 C 180.687 187.840,180.638 188.560,180.806 189.000 C 180.974 189.440,181.019 190.295,180.906 190.900 C 180.793 191.505,180.878 192.000,181.095 192.000 C 181.312 192.000,181.439 192.467,181.376 193.039 C 181.284 193.877,181.404 194.040,182.001 193.884 C 182.512 193.750,182.674 193.862,182.527 194.245 C 182.410 194.550,182.508 194.800,182.745 194.800 C 182.981 194.800,183.080 195.047,182.964 195.348 C 182.701 196.036,183.914 197.300,184.494 196.942 C 184.731 196.796,184.809 196.862,184.668 197.090 C 184.358 197.592,185.540 200.084,185.964 199.822 C 186.130 199.720,187.144 200.528,188.218 201.618 C 189.399 202.817,190.522 203.600,191.061 203.600 C 191.552 203.600,192.072 203.792,192.217 204.027 C 192.362 204.262,192.731 204.359,193.036 204.242 C 193.341 204.125,193.548 204.240,193.495 204.498 C 193.443 204.756,193.802 204.995,194.293 205.029 C 194.784 205.063,195.458 205.316,195.790 205.592 C 196.123 205.868,196.846 206.008,197.398 205.903 C 197.949 205.797,198.400 205.866,198.400 206.055 C 198.400 206.245,198.591 206.400,198.824 206.400 C 199.057 206.400,199.146 206.237,199.023 206.037 C 198.900 205.838,199.159 205.769,199.599 205.884 C 200.062 206.005,200.400 205.896,200.400 205.627 C 200.400 205.303,200.610 205.278,201.090 205.546 C 201.514 205.784,202.043 205.791,202.465 205.565 C 202.843 205.363,203.244 205.347,203.356 205.529 C 203.668 206.033,206.215 205.777,206.100 205.253 C 206.045 205.004,206.135 204.836,206.300 204.881 C 206.465 204.925,207.343 204.573,208.250 204.098 C 209.158 203.623,210.013 203.347,210.150 203.484 C 210.288 203.621,210.400 203.513,210.400 203.243 C 210.400 202.973,210.568 202.856,210.773 202.983 C 210.978 203.110,211.428 202.810,211.773 202.318 C 212.118 201.825,212.400 201.557,212.400 201.721 C 212.400 201.886,212.940 201.741,213.600 201.400 C 214.260 201.059,214.800 200.621,214.800 200.427 C 214.800 200.233,215.187 200.176,215.659 200.300 C 216.413 200.497,216.487 200.400,216.262 199.504 C 216.083 198.791,216.186 198.414,216.603 198.254 C 216.931 198.128,217.200 197.539,217.200 196.946 C 217.200 196.352,217.309 195.976,217.443 196.109 C 217.798 196.465,218.729 195.481,218.530 194.961 C 218.436 194.718,218.822 194.216,219.387 193.846 C 220.262 193.272,220.348 193.050,219.967 192.338 C 219.631 191.711,219.635 191.575,219.984 191.790 C 220.316 191.995,220.401 191.610,220.284 190.438 C 220.165 189.249,220.268 188.800,220.660 188.800 C 221.300 188.800,221.377 188.157,220.781 187.788 C 220.519 187.626,220.500 187.354,220.731 187.064 C 220.935 186.809,220.966 186.240,220.801 185.800 C 220.636 185.360,220.665 184.683,220.867 184.295 C 221.253 183.552,221.183 182.339,220.733 181.997 C 220.587 181.885,220.388 181.165,220.291 180.397 C 220.195 179.629,219.927 179.039,219.696 179.087 C 219.465 179.135,219.174 178.910,219.050 178.587 C 218.927 178.264,218.963 178.000,219.131 178.000 C 220.057 178.000,219.180 175.988,217.562 174.400 C 216.552 173.410,215.512 172.195,215.249 171.700 C 214.987 171.205,214.536 170.800,214.247 170.800 C 213.594 170.800,212.000 169.450,212.000 168.896 C 212.000 168.503,211.046 167.914,210.200 167.784 C 209.433 167.666,208.198 167.056,207.937 166.665 C 207.792 166.449,207.339 166.247,206.930 166.217 C 206.521 166.187,205.958 166.021,205.680 165.849 C 204.806 165.309,197.380 165.180,196.863 165.697 M259.000 166.164 C 258.340 166.692,257.710 166.985,257.600 166.816 C 257.019 165.921,255.522 165.925,255.807 166.821 C 256.043 167.566,255.972 167.675,255.395 167.454 C 255.012 167.307,254.451 167.391,254.149 167.642 C 253.847 167.893,253.600 167.985,253.600 167.846 C 253.600 167.550,251.468 169.339,250.013 170.855 C 248.387 172.549,247.792 173.360,247.910 173.722 C 247.971 173.908,247.656 173.945,247.210 173.803 C 246.742 173.655,246.400 173.726,246.400 173.973 C 246.400 174.208,246.577 174.400,246.794 174.400 C 247.278 174.400,246.099 176.389,244.654 178.010 C 243.860 178.901,243.651 179.463,243.837 180.204 C 244.011 180.899,243.923 181.200,243.543 181.200 C 243.141 181.200,242.989 181.935,242.958 184.041 C 242.935 185.613,242.722 187.001,242.480 187.150 C 241.932 187.489,242.098 188.766,242.742 189.164 C 243.009 189.329,243.119 189.746,242.986 190.092 C 242.854 190.437,242.957 190.850,243.215 191.010 C 243.572 191.230,243.568 191.373,243.196 191.602 C 242.859 191.811,243.397 192.611,244.927 194.178 C 246.148 195.429,247.114 196.575,247.073 196.726 C 247.033 196.877,247.450 197.029,248.000 197.066 C 249.988 197.196,251.608 197.475,251.865 197.731 C 252.009 197.875,252.368 197.793,252.663 197.548 C 253.024 197.248,253.200 197.240,253.200 197.524 C 253.200 198.160,255.085 197.828,255.958 197.038 C 256.380 196.656,257.327 196.290,258.063 196.226 C 258.858 196.156,259.355 195.912,259.290 195.624 C 259.230 195.358,259.377 195.262,259.617 195.411 C 259.865 195.564,260.150 195.313,260.276 194.832 C 260.443 194.193,260.625 194.089,261.013 194.411 C 261.603 194.901,262.214 194.270,261.800 193.600 C 261.664 193.380,261.711 193.200,261.904 193.200 C 262.540 193.200,264.887 190.865,264.645 190.473 C 264.515 190.263,264.722 190.115,265.104 190.145 C 265.549 190.180,265.778 189.938,265.740 189.473 C 265.707 189.074,265.783 188.850,265.910 188.977 C 266.253 189.319,267.593 187.113,267.315 186.663 C 267.184 186.450,267.277 186.400,267.521 186.551 C 268.011 186.854,269.332 184.666,268.913 184.247 C 268.773 184.106,269.005 183.729,269.429 183.409 C 269.853 183.088,270.043 182.820,269.851 182.813 C 269.659 182.806,269.743 182.510,270.037 182.156 C 270.676 181.385,270.969 176.552,270.398 176.199 C 270.165 176.055,270.136 175.670,270.329 175.276 C 270.936 174.040,270.593 170.993,269.855 171.056 C 269.495 171.086,269.200 170.906,269.200 170.656 C 269.199 170.061,266.503 167.536,265.119 166.834 C 264.525 166.532,264.075 166.149,264.119 165.983 C 264.211 165.640,263.654 165.604,262.873 165.904 C 262.583 166.015,262.142 165.902,261.893 165.653 C 261.196 164.956,260.315 165.112,259.000 166.164 M125.602 190.484 C 125.161 191.080,124.800 191.839,124.800 192.171 C 124.800 192.510,124.566 192.685,124.267 192.570 C 123.964 192.454,123.733 192.633,123.733 192.983 C 123.733 193.322,123.871 193.600,124.039 193.600 C 124.208 193.600,124.289 194.095,124.220 194.700 C 124.151 195.305,124.276 196.025,124.497 196.301 C 124.719 196.577,124.788 197.361,124.651 198.043 C 124.463 198.985,124.532 199.235,124.939 199.079 C 125.319 198.933,125.423 199.144,125.298 199.801 C 125.171 200.464,125.376 200.866,126.014 201.208 C 126.736 201.594,126.801 201.761,126.354 202.073 C 125.963 202.347,125.936 202.517,126.262 202.651 C 126.517 202.756,127.280 203.372,127.959 204.021 C 128.637 204.669,129.410 205.200,129.676 205.200 C 130.053 205.200,130.053 205.307,129.680 205.680 C 128.743 206.617,129.455 207.043,130.679 206.278 C 131.006 206.074,131.109 206.236,131.002 206.789 C 130.916 207.235,131.002 207.600,131.194 207.600 C 131.385 207.600,131.601 207.908,131.673 208.285 C 131.762 208.746,132.198 208.976,133.003 208.985 C 133.803 208.995,134.161 209.182,134.083 209.550 C 134.001 209.937,134.261 210.043,134.964 209.909 C 135.512 209.804,135.924 209.892,135.880 210.105 C 135.836 210.317,136.248 210.566,136.796 210.657 C 139.591 211.126,142.408 204.619,140.438 202.245 C 140.084 201.820,140.055 201.600,140.351 201.600 C 140.598 201.600,140.800 201.420,140.800 201.200 C 140.800 200.980,140.522 200.800,140.182 200.800 C 139.514 200.800,139.526 199.624,140.200 199.074 C 140.420 198.894,140.172 198.869,139.650 199.017 C 138.944 199.217,138.780 199.156,139.011 198.782 C 139.200 198.476,139.024 198.051,138.561 197.698 C 137.838 197.146,137.846 197.131,138.729 197.395 L 139.657 197.672 138.768 196.650 C 138.280 196.087,137.746 195.710,137.582 195.811 C 137.419 195.912,137.167 195.524,137.023 194.949 C 136.702 193.671,135.962 192.879,135.296 193.101 C 135.014 193.195,134.800 192.929,134.800 192.482 C 134.800 191.508,133.790 190.569,133.408 191.187 C 133.263 191.421,132.932 191.480,132.672 191.318 C 132.413 191.155,131.960 190.986,131.666 190.942 C 131.373 190.897,130.892 190.532,130.597 190.130 C 129.697 188.904,126.610 189.122,125.602 190.484 M271.218 189.779 C 270.841 190.233,270.284 190.367,269.378 190.223 C 268.458 190.077,268.013 190.190,267.852 190.608 C 267.727 190.934,267.349 191.200,267.013 191.200 C 266.676 191.200,266.400 191.461,266.400 191.779 C 266.400 192.386,264.645 194.487,264.203 194.409 C 263.853 194.348,262.001 197.121,261.994 197.718 C 261.990 198.016,261.840 197.971,261.600 197.600 C 261.286 197.113,261.211 197.168,261.206 197.888 C 261.199 198.856,259.779 201.629,259.057 202.083 C 258.729 202.290,258.742 202.502,259.103 202.863 C 259.655 203.415,259.781 204.800,259.280 204.800 C 259.104 204.800,258.960 205.430,258.960 206.200 C 258.960 207.071,259.153 207.600,259.472 207.600 C 259.754 207.600,260.109 208.093,260.260 208.696 C 260.749 210.644,262.119 211.084,264.848 210.167 C 265.372 209.991,265.980 209.818,266.200 209.781 C 267.435 209.577,268.400 209.031,268.591 208.429 C 268.710 208.052,269.427 207.449,270.184 207.088 C 271.213 206.597,271.521 206.226,271.403 205.616 C 271.317 205.167,271.381 204.800,271.546 204.800 C 272.227 204.800,274.469 201.008,274.532 199.749 C 274.570 199.014,274.802 198.335,275.049 198.239 C 275.295 198.143,275.447 197.606,275.385 197.044 C 275.324 196.483,275.392 196.040,275.537 196.060 C 276.306 196.162,276.386 195.915,275.838 195.133 C 275.295 194.358,275.295 194.219,275.838 193.822 C 276.356 193.443,276.202 193.122,274.798 191.646 C 273.893 190.694,273.045 190.022,272.915 190.151 C 272.785 190.281,272.472 190.104,272.219 189.758 C 271.800 189.186,271.708 189.188,271.218 189.779 M167.153 195.100 C 167.127 195.265,167.134 195.558,167.170 195.751 C 167.205 195.944,166.821 195.976,166.317 195.822 C 165.813 195.668,165.130 195.558,164.800 195.577 C 164.470 195.596,163.778 195.610,163.262 195.607 C 162.656 195.604,162.250 195.888,162.113 196.410 C 161.949 197.040,161.783 197.118,161.356 196.764 C 160.647 196.175,158.237 198.790,158.120 200.275 C 158.077 200.834,157.744 201.620,157.381 202.021 C 157.018 202.422,156.845 202.949,156.995 203.192 C 157.146 203.436,157.110 203.852,156.916 204.118 C 156.430 204.780,156.551 206.811,157.141 207.900 C 157.409 208.395,157.510 208.800,157.365 208.800 C 157.220 208.800,157.339 209.085,157.628 209.433 C 157.917 209.782,158.169 210.727,158.188 211.533 C 158.212 212.522,158.415 213.013,158.812 213.039 C 159.910 213.111,160.800 213.683,160.800 214.317 C 160.800 215.351,165.866 220.026,166.657 219.723 C 167.112 219.548,167.237 219.616,167.042 219.932 C 166.872 220.207,166.992 220.400,167.332 220.400 C 167.650 220.400,167.886 220.704,167.856 221.076 C 167.813 221.593,168.154 221.765,169.297 221.804 C 170.262 221.837,171.146 222.186,171.785 222.786 C 172.575 223.529,172.893 223.621,173.349 223.242 C 173.795 222.872,173.968 222.881,174.130 223.283 C 174.297 223.701,174.343 223.702,174.368 223.286 C 174.390 222.927,174.611 222.881,175.100 223.134 C 175.485 223.333,176.115 223.445,176.500 223.383 C 176.885 223.321,177.200 223.498,177.200 223.775 C 177.200 224.106,177.717 224.252,178.700 224.198 C 179.680 224.146,180.159 223.941,180.083 223.608 C 180.006 223.274,180.248 223.172,180.783 223.311 C 181.232 223.429,181.695 223.370,181.812 223.180 C 181.930 222.990,182.279 222.932,182.589 223.051 C 182.898 223.170,183.374 222.910,183.647 222.473 C 183.920 222.037,184.357 221.762,184.619 221.863 C 184.881 221.963,185.192 221.675,185.310 221.223 C 185.428 220.770,185.767 220.396,186.063 220.390 C 186.634 220.380,188.000 217.970,188.000 216.971 C 188.000 216.643,188.275 216.270,188.610 216.141 C 189.102 215.952,189.125 215.791,188.728 215.313 C 188.152 214.620,187.915 213.500,188.407 213.805 C 189.433 214.438,188.656 211.317,187.561 210.400 C 187.429 210.290,187.355 209.778,187.397 209.263 C 187.438 208.747,187.225 208.231,186.924 208.115 C 186.601 207.992,186.472 207.604,186.609 207.171 C 186.845 206.428,185.729 204.276,185.256 204.561 C 184.996 204.718,183.976 203.788,183.992 203.408 C 183.996 203.294,183.865 203.167,183.700 203.127 C 183.229 203.012,182.000 201.326,182.000 200.794 C 182.000 200.530,181.732 200.417,181.405 200.543 C 181.071 200.671,180.851 200.568,180.905 200.309 C 180.957 200.055,180.640 199.774,180.200 199.685 C 179.760 199.596,179.220 199.333,179.000 199.102 C 178.728 198.817,178.760 198.773,179.100 198.965 C 179.407 199.138,179.600 199.006,179.600 198.624 C 179.600 197.906,179.145 197.815,178.547 198.413 C 178.035 198.925,176.800 198.496,176.800 197.806 C 176.800 197.178,174.610 196.223,174.014 196.591 C 173.776 196.739,173.630 196.630,173.690 196.349 C 173.765 195.999,173.181 195.806,171.837 195.736 C 170.757 195.679,169.686 195.446,169.457 195.217 C 168.979 194.739,167.224 194.650,167.153 195.100 M234.309 195.273 C 234.218 195.547,233.284 195.721,231.993 195.706 C 230.435 195.688,229.685 195.865,229.315 196.340 C 228.839 196.950,228.757 196.945,228.236 196.273 C 227.448 195.257,227.142 195.263,226.757 196.306 C 226.448 197.139,224.647 198.230,223.870 198.055 C 223.689 198.014,223.630 198.124,223.739 198.301 C 223.848 198.477,223.411 198.923,222.768 199.292 C 222.126 199.661,221.600 199.791,221.600 199.581 C 221.600 199.372,221.408 199.200,221.173 199.200 C 220.926 199.200,220.855 199.542,221.003 200.010 C 221.145 200.456,221.108 200.771,220.922 200.710 C 220.560 200.592,219.749 201.187,218.055 202.813 C 216.539 204.268,214.750 206.400,215.046 206.400 C 215.185 206.400,215.093 206.647,214.842 206.949 C 214.591 207.251,214.507 207.812,214.654 208.195 C 214.875 208.772,214.766 208.843,214.021 208.607 C 213.109 208.317,213.136 209.981,214.049 210.332 C 214.238 210.405,213.936 211.061,213.380 211.791 C 212.306 213.198,212.409 217.134,213.513 216.905 C 213.769 216.852,213.870 217.073,213.742 217.406 C 213.435 218.208,218.017 222.800,219.125 222.800 C 219.580 222.800,220.070 222.989,220.213 223.221 C 220.592 223.835,228.738 223.557,229.274 222.911 C 229.503 222.635,229.852 222.508,230.048 222.630 C 230.245 222.751,230.518 222.559,230.654 222.202 C 230.791 221.846,231.132 221.642,231.412 221.749 C 232.011 221.979,234.510 220.243,234.128 219.861 C 233.887 219.620,234.706 219.449,235.896 219.492 C 236.168 219.502,236.314 219.384,236.218 219.230 C 235.986 218.854,237.817 216.750,238.116 217.050 C 238.464 217.398,240.400 215.337,240.400 214.618 C 240.400 214.278,240.580 214.000,240.800 214.000 C 241.020 214.000,241.200 214.210,241.200 214.467 C 241.200 214.943,241.795 214.551,241.806 214.067 C 241.809 213.920,241.988 213.530,242.203 213.200 C 243.055 211.892,243.497 210.057,243.064 209.624 C 242.765 209.325,242.906 209.200,243.544 209.200 C 244.041 209.200,244.345 209.035,244.221 208.834 C 244.097 208.633,244.202 208.399,244.455 208.315 C 245.041 208.120,245.287 206.000,244.724 206.000 C 244.440 206.000,244.448 205.824,244.748 205.463 C 244.993 205.168,245.071 204.804,244.922 204.655 C 244.642 204.375,244.485 203.476,244.354 201.400 C 244.241 199.609,243.292 198.368,242.187 198.568 C 241.620 198.671,240.998 198.440,240.571 197.968 C 240.189 197.545,240.001 197.200,240.154 197.200 C 240.306 197.200,240.106 196.851,239.709 196.425 C 239.229 195.910,238.587 195.694,237.794 195.782 C 237.137 195.855,236.480 195.722,236.333 195.487 C 235.954 194.880,234.492 194.725,234.309 195.273 M146.800 212.223 C 146.800 212.493,146.328 212.832,145.752 212.976 C 144.608 213.263,143.368 214.302,143.733 214.667 C 143.859 214.792,143.703 215.154,143.387 215.470 C 142.886 215.971,142.889 216.164,143.407 216.955 C 143.735 217.455,143.910 217.957,143.797 218.070 C 143.434 218.433,145.233 222.038,145.905 222.296 C 146.261 222.432,147.683 223.658,149.064 225.019 C 151.006 226.932,151.930 227.550,153.136 227.743 C 153.994 227.881,154.922 228.264,155.197 228.596 C 155.473 228.928,155.931 229.200,156.216 229.200 C 156.500 229.200,156.825 229.425,156.936 229.700 C 157.091 230.081,157.234 230.064,157.539 229.626 C 157.855 229.172,158.061 229.153,158.521 229.534 C 159.641 230.464,163.826 228.108,163.471 226.748 C 163.363 226.336,163.439 226.101,163.640 226.225 C 163.841 226.349,164.114 226.168,164.247 225.822 C 164.521 225.108,163.361 222.400,162.781 222.400 C 162.572 222.400,162.400 222.040,162.400 221.600 C 162.400 221.160,162.045 220.445,161.610 220.010 C 161.176 219.576,160.710 218.779,160.574 218.239 C 160.332 217.276,159.576 216.715,158.413 216.639 C 158.090 216.617,157.635 216.240,157.402 215.800 C 157.169 215.360,156.715 214.941,156.393 214.868 C 156.071 214.795,155.716 214.607,155.604 214.449 C 154.840 213.372,152.784 212.376,152.556 212.972 C 152.244 213.782,151.600 213.785,151.600 212.976 C 151.600 212.633,151.409 212.471,151.175 212.616 C 150.941 212.760,150.446 212.615,150.075 212.292 C 149.256 211.581,146.800 211.530,146.800 212.223 M250.404 212.196 C 250.132 212.523,249.757 212.697,249.571 212.582 C 249.385 212.467,248.865 212.559,248.416 212.786 C 247.967 213.014,247.242 213.380,246.805 213.600 C 246.368 213.820,245.603 214.003,245.105 214.006 C 244.374 214.011,244.315 214.087,244.800 214.400 C 245.167 214.637,245.213 214.790,244.920 214.794 C 244.124 214.804,240.945 217.119,240.232 218.208 C 239.865 218.768,239.428 219.141,239.261 219.038 C 239.094 218.935,238.993 219.365,239.037 219.995 C 239.080 220.624,238.819 221.468,238.455 221.870 C 236.880 223.610,236.384 224.708,237.057 224.966 C 237.404 225.100,237.583 225.467,237.458 225.792 C 237.184 226.507,238.299 227.710,238.894 227.342 C 239.157 227.179,239.207 227.266,239.022 227.565 C 238.829 227.876,239.025 228.134,239.560 228.274 C 240.022 228.394,240.400 228.674,240.400 228.896 C 240.400 229.134,240.630 229.107,240.964 228.830 C 241.310 228.543,241.621 228.510,241.766 228.745 C 242.075 229.246,243.426 229.017,243.312 228.483 C 243.264 228.258,243.683 228.124,244.244 228.185 C 244.806 228.247,245.343 228.095,245.439 227.849 C 245.535 227.602,246.214 227.370,246.949 227.332 C 248.208 227.269,252.000 225.027,252.000 224.346 C 252.000 224.181,252.367 224.117,252.816 224.203 C 253.426 224.321,253.797 224.013,254.288 222.984 C 254.649 222.227,255.227 221.517,255.572 221.405 C 256.516 221.099,257.294 219.195,256.745 218.533 C 256.501 218.240,256.414 217.978,256.551 217.950 C 256.688 217.923,256.980 217.855,257.200 217.800 C 257.420 217.745,257.735 217.675,257.900 217.644 C 258.065 217.613,257.951 217.430,257.646 217.237 C 257.204 216.957,257.182 216.627,257.538 215.606 C 257.967 214.376,257.213 212.654,256.540 213.327 C 256.418 213.449,255.902 213.065,255.393 212.474 C 254.549 211.494,254.361 211.441,253.236 211.865 C 252.517 212.136,251.910 212.177,251.778 211.965 C 251.451 211.435,250.967 211.516,250.404 212.196 M196.157 224.168 C 196.022 224.519,195.569 224.669,194.969 224.560 C 194.436 224.463,194.000 224.568,194.000 224.792 C 194.000 225.016,193.544 225.200,192.987 225.200 C 192.431 225.200,191.871 225.470,191.745 225.800 C 191.618 226.130,191.264 226.400,190.957 226.400 C 190.651 226.400,190.400 226.670,190.400 227.000 C 190.400 227.330,190.220 227.623,190.000 227.650 C 189.780 227.678,189.375 227.727,189.100 227.759 C 188.825 227.791,188.653 228.129,188.718 228.509 C 188.794 228.960,188.574 229.200,188.084 229.200 C 187.052 229.200,186.721 229.623,187.252 230.263 C 187.582 230.660,187.569 230.956,187.200 231.400 C 186.765 231.924,186.886 232.130,187.600 232.081 C 187.710 232.073,187.826 232.501,187.858 233.032 C 187.889 233.563,188.459 234.618,189.124 235.375 C 189.789 236.132,190.511 237.069,190.728 237.457 C 191.060 238.050,191.223 238.079,191.756 237.636 C 192.555 236.974,193.668 237.357,193.350 238.185 C 193.070 238.915,193.841 239.028,194.136 238.300 C 194.293 237.913,194.427 237.925,194.725 238.351 C 194.937 238.654,195.311 238.779,195.555 238.628 C 195.800 238.476,196.000 238.600,196.000 238.902 C 196.000 239.514,199.017 239.648,199.900 239.076 C 200.243 238.854,200.400 239.012,200.400 239.576 C 200.400 240.460,200.980 240.679,201.424 239.962 C 201.575 239.716,202.334 239.601,203.147 239.700 C 204.609 239.877,206.400 239.352,206.400 238.746 C 206.400 238.566,206.862 238.595,207.426 238.810 C 208.087 239.061,208.709 239.063,209.174 238.814 C 209.570 238.602,209.995 238.528,210.117 238.651 C 210.563 239.096,211.919 238.352,212.130 237.547 C 212.249 237.092,212.536 236.837,212.768 236.980 C 213.000 237.124,213.586 236.872,214.070 236.420 C 214.555 235.969,215.108 235.600,215.299 235.600 C 215.491 235.600,215.524 235.400,215.372 235.155 C 215.221 234.911,215.323 234.571,215.599 234.401 C 217.204 233.409,215.359 228.085,213.092 227.168 C 212.382 226.881,211.694 226.491,211.564 226.302 C 211.434 226.113,210.851 225.908,210.269 225.846 C 209.687 225.784,208.893 225.447,208.505 225.098 C 208.109 224.741,207.242 224.502,206.525 224.553 C 205.781 224.605,205.350 224.480,205.491 224.253 C 205.637 224.016,205.432 223.982,204.966 224.166 C 203.524 224.736,202.896 224.735,201.791 224.162 C 200.542 223.513,198.893 223.603,198.435 224.343 C 198.201 224.722,198.009 224.693,197.616 224.219 C 196.975 223.447,196.441 223.429,196.157 224.168 M172.076 277.053 C 171.788 277.364,171.382 277.512,171.173 277.383 C 170.965 277.255,170.694 277.411,170.571 277.730 C 170.439 278.075,170.033 278.229,169.574 278.109 C 169.148 277.998,168.800 278.108,168.800 278.353 C 168.800 278.599,168.539 278.800,168.220 278.800 C 167.901 278.800,167.496 279.031,167.320 279.314 C 167.144 279.596,166.640 279.821,166.200 279.814 C 165.760 279.806,165.400 280.035,165.400 280.323 C 165.400 280.610,165.010 281.150,164.534 281.523 C 163.463 282.360,162.000 284.953,162.000 286.012 C 162.000 286.445,161.846 286.800,161.658 286.800 C 161.470 286.800,161.343 287.565,161.377 288.500 C 161.410 289.435,161.163 290.699,160.828 291.308 C 160.322 292.227,160.306 292.557,160.732 293.240 C 161.129 293.875,161.138 294.193,160.774 294.631 C 160.332 295.164,160.538 295.379,161.350 295.231 C 161.542 295.196,161.612 295.623,161.506 296.181 C 161.399 296.739,161.532 297.377,161.800 297.600 C 162.068 297.823,162.202 298.454,162.097 299.003 C 161.986 299.584,162.093 300.000,162.353 300.000 C 162.599 300.000,162.800 300.192,162.800 300.427 C 162.800 301.123,164.859 303.611,165.240 303.375 C 165.433 303.256,165.501 303.393,165.391 303.680 C 165.281 303.967,165.571 304.440,166.037 304.730 C 166.739 305.169,166.837 305.169,166.607 304.730 C 166.455 304.438,166.661 304.576,167.065 305.036 C 167.820 305.895,171.179 307.600,172.116 307.600 C 172.404 307.600,172.856 307.816,173.120 308.080 C 173.493 308.453,173.600 308.442,173.600 308.031 C 173.600 307.660,173.749 307.622,174.100 307.904 C 174.776 308.448,183.531 308.391,184.572 307.837 C 185.027 307.594,185.670 307.219,186.000 307.004 C 186.330 306.789,186.960 306.601,187.400 306.588 C 187.840 306.575,188.161 306.366,188.114 306.124 C 188.067 305.882,188.632 305.571,189.370 305.432 C 190.240 305.269,190.785 304.902,190.918 304.390 C 191.032 303.956,191.412 303.600,191.763 303.600 C 192.113 303.600,192.400 303.339,192.400 303.020 C 192.400 302.701,192.676 302.286,193.013 302.097 C 193.349 301.908,193.727 301.225,193.851 300.577 C 194.154 298.994,194.231 298.710,194.568 297.938 C 195.263 296.344,193.838 295.744,189.545 295.824 L 185.541 295.899 183.969 297.650 C 183.105 298.612,182.144 299.670,181.834 300.000 C 181.443 300.416,180.554 300.582,178.935 300.542 C 175.305 300.452,175.137 300.426,175.400 300.000 C 175.536 299.780,175.476 299.600,175.266 299.600 C 174.512 299.600,172.400 297.261,172.400 296.427 C 172.400 295.958,172.164 295.484,171.875 295.373 C 171.259 295.137,171.362 290.079,172.017 288.400 C 172.060 288.290,172.073 288.065,172.047 287.900 C 172.021 287.735,172.250 287.600,172.557 287.600 C 172.863 287.600,173.225 287.156,173.361 286.614 C 173.542 285.890,173.793 285.695,174.304 285.878 C 174.687 286.015,174.864 285.977,174.697 285.794 C 174.530 285.610,174.865 285.151,175.441 284.773 C 177.224 283.604,182.976 284.345,182.175 285.641 C 182.056 285.833,182.230 285.887,182.562 285.759 C 182.976 285.600,183.248 285.854,183.427 286.564 C 183.570 287.134,183.892 287.603,184.143 287.606 C 184.399 287.610,184.336 287.801,184.000 288.041 C 183.516 288.386,183.571 288.432,184.285 288.276 C 184.772 288.170,185.359 288.310,185.589 288.587 C 186.161 289.276,191.508 289.352,192.800 288.690 C 195.412 287.350,193.221 281.751,188.955 278.866 C 188.270 278.403,187.618 278.115,187.506 278.228 C 187.394 278.340,186.502 278.006,185.524 277.487 C 183.461 276.390,173.207 275.917,173.194 276.918 C 173.189 277.270,173.109 277.277,172.894 276.944 C 172.681 276.615,172.455 276.645,172.076 277.053 M106.000 278.513 C 105.487 278.929,105.400 281.073,105.400 293.308 L 105.400 307.616 119.496 307.590 C 135.495 307.560,134.210 307.870,134.357 304.000 C 134.403 302.790,134.538 301.473,134.656 301.074 C 134.792 300.612,134.676 300.375,134.335 300.422 C 133.292 300.564,132.756 300.395,133.000 300.000 C 133.162 299.738,130.137 299.600,124.224 299.600 L 115.200 299.600 115.206 298.500 C 115.217 296.496,115.366 296.454,122.809 296.323 L 129.800 296.200 129.872 292.700 C 129.930 289.897,129.831 289.200,129.372 289.200 C 129.058 289.200,128.800 289.020,128.800 288.800 C 128.800 288.549,126.267 288.400,122.000 288.400 C 114.862 288.400,114.774 288.376,115.443 286.633 C 115.653 286.084,116.789 286.000,124.014 286.000 C 130.440 286.000,132.465 285.878,132.879 285.464 C 133.173 285.170,133.654 284.849,133.947 284.751 C 134.830 284.457,134.726 279.823,133.814 278.816 C 132.913 277.820,107.198 277.540,106.000 278.513 M198.890 278.326 C 198.494 278.585,198.359 281.921,198.290 293.138 L 198.200 307.615 211.600 307.589 L 225.000 307.564 225.000 303.682 L 225.000 299.800 216.488 299.692 L 207.975 299.584 208.014 289.614 C 208.037 283.438,207.895 279.351,207.638 278.872 C 207.192 278.037,200.015 277.589,198.890 278.326 M228.501 278.786 C 227.874 279.790,227.593 297.913,228.200 298.169 C 228.420 298.261,228.362 298.351,228.071 298.368 C 227.663 298.393,227.680 298.538,228.148 299.005 C 228.480 299.337,228.682 299.972,228.597 300.415 C 228.512 300.859,228.612 301.116,228.821 300.987 C 229.158 300.779,229.366 301.302,229.255 302.077 C 229.233 302.229,229.686 302.724,230.262 303.177 C 230.837 303.630,231.180 304.000,231.023 304.000 C 230.867 304.000,231.273 304.450,231.927 305.000 C 232.581 305.550,233.315 306.000,233.558 306.000 C 233.801 306.000,234.000 306.180,234.000 306.400 C 234.000 306.620,234.349 306.800,234.776 306.800 C 235.203 306.800,235.650 306.957,235.769 307.150 C 235.888 307.343,236.459 307.500,237.038 307.500 C 237.617 307.500,238.206 307.679,238.345 307.897 C 238.772 308.562,250.071 308.362,249.814 307.694 C 249.680 307.344,249.855 307.192,250.303 307.265 C 250.686 307.328,251.253 307.222,251.562 307.028 C 251.961 306.778,252.035 306.820,251.816 307.174 C 251.647 307.448,252.249 307.182,253.154 306.583 C 254.059 305.984,254.800 305.318,254.800 305.104 C 254.800 304.890,255.077 304.821,255.415 304.950 C 255.761 305.083,256.127 304.934,256.252 304.608 C 256.374 304.291,256.836 303.915,257.279 303.775 C 257.917 303.573,258.037 303.284,257.858 302.388 C 257.733 301.765,257.806 301.198,258.020 301.127 C 258.233 301.056,258.486 300.592,258.581 300.097 C 258.677 299.602,258.869 299.011,259.009 298.785 C 259.363 298.213,259.389 279.030,259.038 278.461 C 258.853 278.163,257.338 278.000,254.741 278.000 C 249.089 278.000,249.349 277.494,249.600 288.019 C 249.710 292.629,249.654 296.401,249.476 296.401 C 249.298 296.400,249.251 296.560,249.372 296.755 C 249.493 296.950,249.304 297.347,248.954 297.638 C 248.603 297.929,248.173 298.545,247.997 299.007 C 247.400 300.577,240.228 301.121,240.182 299.600 C 240.172 299.270,239.943 299.046,239.672 299.103 C 239.402 299.160,239.070 298.649,238.934 297.969 C 238.798 297.288,238.439 296.636,238.136 296.520 C 237.689 296.348,237.602 294.689,237.673 287.646 C 237.721 282.882,237.624 278.762,237.457 278.492 C 236.890 277.575,229.098 277.832,228.501 278.786 M266.400 278.416 C 266.400 278.653,266.240 278.749,266.045 278.628 C 265.011 277.989,264.835 279.962,264.720 293.494 L 264.600 307.553 276.767 307.477 C 286.122 307.418,288.972 307.284,289.101 306.898 C 289.193 306.621,289.449 306.506,289.669 306.643 C 290.670 307.261,295.760 303.682,295.360 302.640 C 295.255 302.365,295.621 301.688,296.173 301.136 C 297.180 300.129,297.379 297.593,296.475 297.292 C 296.278 297.226,296.201 296.731,296.304 296.191 C 296.430 295.533,296.279 295.129,295.848 294.963 C 295.494 294.827,295.321 294.527,295.464 294.296 C 295.608 294.063,295.534 293.994,295.297 294.140 C 295.062 294.285,294.500 293.908,294.048 293.302 C 293.595 292.696,293.220 292.432,293.213 292.716 C 293.204 293.052,292.901 292.952,292.339 292.429 C 291.474 291.623,291.923 290.058,292.855 290.634 C 293.056 290.758,293.187 290.711,293.146 290.530 C 293.038 290.042,293.679 288.642,294.157 288.323 C 294.660 287.988,294.770 285.629,294.297 285.336 C 294.112 285.222,294.168 284.880,294.420 284.576 C 294.773 284.151,294.730 283.873,294.236 283.379 C 293.882 283.025,293.695 282.570,293.820 282.368 C 293.945 282.165,293.773 282.000,293.438 282.000 C 293.102 282.000,292.635 281.640,292.400 281.200 C 292.165 280.760,291.791 280.400,291.569 280.400 C 291.348 280.400,290.780 280.040,290.308 279.600 C 289.836 279.160,288.943 278.800,288.325 278.800 C 287.706 278.800,287.200 278.630,287.200 278.422 C 287.200 278.195,283.047 278.032,276.800 278.014 C 269.607 277.993,266.400 278.117,266.400 278.416 M283.791 286.248 C 284.389 286.846,284.375 286.942,283.613 287.476 C 283.159 287.794,282.863 288.177,282.956 288.327 C 283.049 288.477,281.334 288.600,279.145 288.600 L 275.166 288.600 275.283 287.400 L 275.400 286.200 279.200 285.977 C 281.290 285.854,283.032 285.719,283.071 285.677 C 283.111 285.634,283.435 285.892,283.791 286.248 M138.104 289.769 C 137.937 290.052,137.542 290.365,137.226 290.466 C 136.523 290.691,136.473 296.266,137.175 296.100 C 137.409 296.045,137.555 296.225,137.500 296.500 C 137.422 296.890,139.733 297.000,148.000 297.000 L 158.600 297.000 158.720 294.700 C 158.786 293.435,158.676 292.400,158.475 292.400 C 158.275 292.400,158.197 291.950,158.302 291.400 C 158.438 290.691,158.318 290.400,157.889 290.400 C 157.557 290.400,157.167 290.090,157.021 289.711 C 156.793 289.118,156.700 289.104,156.348 289.611 C 156.031 290.068,155.893 290.085,155.732 289.688 C 155.433 288.946,138.546 289.024,138.104 289.769 M286.075 298.073 C 285.978 298.728,285.607 299.352,285.250 299.461 C 284.892 299.570,284.293 299.822,283.919 300.021 C 283.498 300.245,283.144 300.234,282.995 299.992 C 282.862 299.776,281.043 299.600,278.952 299.600 L 275.152 299.600 275.276 298.100 L 275.400 296.600 279.396 296.484 C 281.593 296.421,283.557 296.203,283.760 296.000 C 284.533 295.227,286.265 296.778,286.075 298.073 " stroke="none" fill="#fc7404" fill-rule="evenodd"></path><path id="path1" d="" stroke="none" fill="#1007404" fill-rule="evenodd"></path><path id="path2" d="" stroke="none" fill="#1007404" fill-rule="evenodd"></path><path id="path3" d="" stroke="none" fill="#1007404" fill-rule="evenodd"></path><path id="path4" d="" stroke="none" fill="#1007404" fill-rule="evenodd"></path><path id="path5" d="" stroke="none" fill="#1007404" fill-rule="evenodd"></path><path id="path6" d="" stroke="none" fill="#1007404" fill-rule="evenodd"></path><path id="path7" d="" stroke="none" fill="#1007404" fill-rule="evenodd"></path><path id="path8" d="" stroke="none" fill="#1007404" fill-rule="evenodd"></path></g></svg>